<?xml version="1.0" encoding="UTF-8"?>
<svg id="Layer_2" data-name="Layer 2" xmlns="http://www.w3.org/2000/svg" viewBox="0 0 601.94 687.32">
  <defs>
    <style>
      .cls-1 {
        fill: #f26635;
      }

      .cls-2 {
        fill: #fdb62b;
      }
    </style>
  </defs>
  <g id="Layer_1-2" data-name="Layer 1">
    <g>
      <path class="cls-2" d="M302.46,123.72c-109.3,0-198.27,89.3-197.9,198.59,.19,54.27,22.23,103.39,57.77,139.03,27.67,27.74,47.92,62.01,58.14,99.83l9.12,33.72-.03-.41,143.25-.92-.29,3.13,8.76-32.39c10.45-38.64,31.38-73.51,59.92-101.58,36.51-35.9,59.16-85.86,59.16-141.11,0-109.3-88.6-197.9-197.9-197.9Zm-53.12,242.65l16.77,7.18-4.74-6.78-3.38-4.84-10.88-15.57c-.49-8.88-.37-17.9,.24-26.93,.36-5.26,.87-10.52,1.54-15.77,.43-3.37,.91-6.73,1.45-10.08,.2-1.23,6.35,12.65,8.31,13.26-2.08-4.38-7.33-19.06-7.13-20.12,1.4-7.69,3.06-15.29,4.9-22.71,.36-1.44,.72-2.88,1.09-4.3,.18-.7,.36-1.41,.54-2.11,.03-.1,.05-.21,.08-.31,0-.02,0-.04,.01-.06l33.33,14.32,.32,.14-26.63-38.15c3.96-12.16,8.14-23.37,12.09-33.18,5.19-12.89,9.97-23.35,13.32-30.33,.66-1.38,1.85-2.41,3.25-2.91,.74,22.64,1.33,45.68,1.76,68.99,.05,2.96,.11,5.9,.15,8.85,.19,11.2,.34,22.35,.44,33.43,.11,10.75,.18,21.42,.21,32.01,.06,18.43,0,36.59-.15,54.42-.09,10.17-.21,20.23-.37,30.16-.06,3.59-.12,7.16-.19,10.72-.23,12.34-.52,24.48-.86,36.37-4.56-3.26-8.74-6.73-12.55-10.41-1.27-1.22,1.79,1.68,4.65,.14-1.84-.2-10.18-5.89-11.07-6.91-14.54-16.74-22.74-36.88-26.5-58.49Zm101.78,14.3l-28.9,28.29-2.03,1.99,21.81-4.88c-6.63,13.29-16.03,25.37-28.94,35.74-.52,.41-1.03,.83-1.56,1.24l.12,3.1h.13s.03,3.89,.03,3.89l.27,6.83-.22,.13,.02,2.31,12.74-.38,.33,10.72-13.02,.43,.62,66.39-15.35,33.77,.22-49.84c.88-15.9,1.63-32.52,2.27-49.71l-19.83,.42-.33-10.77,20.54-.42c.15-4.29,.29-8.6,.42-12.96,.24-8.03,.46-16.17,.65-24.42,.22-9.57,.41-19.29,.56-29.13,.22-14.07,.37-28.38,.45-42.91,.05-8.89,.07-17.87,.06-26.91,0-11.51-.05-23.12-.14-34.82-.03-4.13-.07-8.26-.11-12.42-.14-13.36-.33-26.82-.58-40.36-.03-1.69-.07-3.38-.1-5.07-.41-21.12-.95-42.03-1.61-62.59,.43,.4,.8,.86,1.09,1.38,4.58,8.18,11.57,21.34,19.04,37.71,1.57,3.44,3.16,7.04,4.76,10.76,2.49,5.8,4.98,11.91,7.42,18.26,1.17,3.05,2.32,6.15,3.45,9.3,1.08,3.01,2.14,6.06,3.17,9.15,.11,.33,.22,.66,.33,1,.25,.77-1.34,10.2-3.28,13.02,2.58,1.13,5.03-7.61,5.52-6.05,3.29,10.56,6.22,21.5,8.54,32.61l-19.78,32.45-.23,.38,23.56-11.9c.37,2.88,.69,5.76,.96,8.63,1.77,19.02,1.15,37.94-3.07,55.66Z"/>
      <path class="cls-1" d="M236.44,618.2l-6.84-25.3,5.3,64.4c1.02,16.79,16.35,30.02,34.27,30.02h63.25c17.92,0,33.25-13.23,34.27-30.02l5.82-62.6-6.35,23.5H236.44Zm123.75,26.02c-40.05-1.27-80.2,1.21-120.24-.12-3.49-.12-3.75-5.3-.2-5.46,40.01-1.77,80.17,.28,120.18-1.43,4.55-.19,4.75,7.15,.26,7.01Zm0-17.38c-40.05-1.27-80.2,1.21-120.24-.12-3.49-.12-3.75-5.3-.2-5.46,40.01-1.77,80.17,.28,120.18-1.43,4.55-.19,4.75,7.15,.26,7.01Z"/>
      <path class="cls-1" d="M303.45,81.69c8.36,0,15.15-45.85,15.15-58.6s-6.78-23.09-15.15-23.09-15.15,10.34-15.15,23.09,6.78,58.6,15.15,58.6Z"/>
      <path class="cls-2" d="M527.05,116.48c9.67-8.31,13.09-20.19,7.64-26.54s-17.71-4.75-27.38,3.56c-9.67,8.31-40.03,43.33-34.58,49.68,5.45,6.34,44.64-18.39,54.32-26.7Z"/>
      <path class="cls-2" d="M601.86,280.16c-1.05-8.3-12.16-13.72-24.81-12.12-12.65,1.61-57.28,14.11-56.22,22.41,1.05,8.3,47.39,9.25,60.04,7.64,12.65-1.61,22.05-9.64,21-17.93Z"/>
      <path class="cls-2" d="M153.71,126.33c5.16-6.59-26.76-40.19-36.8-48.05-10.04-7.86-22.36-8.9-27.52-2.31-5.16,6.59-1.2,18.3,8.84,26.16,10.04,7.86,50.32,30.79,55.47,24.21Z"/>
      <path class="cls-2" d="M24.9,235.27c-12.65-1.61-23.76,3.82-24.82,12.11-1.05,8.3,8.35,16.33,21,17.93,12.65,1.61,58.99,.66,60.04-7.64,1.05-8.3-43.57-20.8-56.22-22.41Z"/>
      <path class="cls-2" d="M303.38,459.84l-3.31,.07c-.12,3.61-.25,7.2-.38,10.77l3.31-.07,.38-10.77Z"/>
    </g>
  </g>
</svg>